<svg width="343" height="331" viewBox="0 0 343 331" fill="none" xmlns="http://www.w3.org/2000/svg">
<path d="M343 222.711H211.415V147.85H343V222.711ZM212.218 221.922H342.197V148.64H212.218V221.922Z" fill="#E0E0E0"/>
<path d="M315.854 187.767H229.039V190.269H315.854V187.767Z" fill="#F0F0F0"/>
<path d="M321.836 197.097H229.039V199.828H321.836V197.097Z" fill="#F0F0F0"/>
<path d="M321.836 206.538H229.039V209.269H321.836V206.538Z" fill="#F0F0F0"/>
<path d="M259.38 174.214H229.039V180.711H259.38V174.214Z" fill="#F0F0F0"/>
<path d="M342.599 148.245H211.841V160.164H342.599V148.245Z" fill="#E0E0E0"/>
<path d="M332.538 158.38C332.37 158.222 334.056 156.225 336.296 153.92C338.536 151.616 340.503 149.871 340.664 150.021C340.824 150.171 339.146 152.176 336.906 154.489C334.666 156.802 332.699 158.538 332.538 158.38Z" fill="white"/>
<path d="M340.68 158.38C340.519 158.538 338.56 156.801 336.312 154.489C334.064 152.176 332.386 150.179 332.554 150.021C332.723 149.863 334.674 151.6 336.922 153.92C339.17 156.241 340.832 158.222 340.68 158.38Z" fill="white"/>
<path d="M181.082 0H50.3246V74.0792H181.082V0Z" fill="#E6E6E6"/>
<path d="M154.346 39.5299H67.5305V42.0321H154.346V39.5299Z" fill="#F0F0F0"/>
<path d="M160.328 48.8599H67.5305V51.591H160.328V48.8599Z" fill="#F0F0F0"/>
<path d="M160.328 58.3004H67.5305V61.0314H160.328V58.3004Z" fill="#F0F0F0"/>
<path d="M97.8714 25.977H67.5305V32.4732H97.8714V25.977Z" fill="#F0F0F0"/>
<path d="M181.082 0H50.3246V11.919H181.082V0Z" fill="#E0E0E0"/>
<path d="M170.581 10.0798C170.412 9.92982 172.098 7.9249 174.338 5.62005C176.578 3.31519 178.545 1.57076 178.706 1.72863C178.866 1.8865 177.188 3.88351 174.948 6.18837C172.708 8.49323 170.741 10.2219 170.581 10.0798Z" fill="white"/>
<path d="M178.706 10.0798C178.545 10.2377 176.586 8.50114 174.338 6.18838C172.09 3.87563 170.412 1.88651 170.581 1.72864C170.749 1.57077 172.7 3.30731 174.948 5.62006C177.196 7.93281 178.874 9.92983 178.706 10.0798Z" fill="white"/>
<path d="M131.561 137.613H0V62.7443H131.561V137.613ZM0.802884 136.823H130.758V63.5336H0.802884V136.823Z" fill="#E0E0E0"/>
<path d="M104.423 102.669H17.6073V105.171H104.423V102.669Z" fill="#F0F0F0"/>
<path d="M110.405 111.999H17.6073V114.73H110.405V111.999Z" fill="#F0F0F0"/>
<path d="M110.405 121.439H17.6073V124.17H110.405V121.439Z" fill="#F0F0F0"/>
<path d="M47.9483 89.116H17.6073V95.6122H47.9483V89.116Z" fill="#F0F0F0"/>
<path d="M131.159 63.139H0.401367V75.058H131.159V63.139Z" fill="#E0E0E0"/>
<path d="M283.394 154.765H128.999V290.657H283.394V154.765Z" fill="#E6E6E6"/>
<path d="M136.763 111.959H15.8168V235.498H136.763V111.959Z" fill="#F0F0F0"/>
<path d="M136.763 111.959H15.8168V125.417H136.763V111.959Z" fill="#E0E0E0"/>
<path d="M25.8046 118.55C25.7825 119.038 25.6152 119.509 25.3234 119.905C25.0316 120.3 24.6281 120.603 24.163 120.774C23.6979 120.946 23.1917 120.98 22.7071 120.872C22.2226 120.764 21.7811 120.518 21.4375 120.165C21.0938 119.812 20.8631 119.368 20.774 118.887C20.6848 118.407 20.7412 117.911 20.9361 117.462C21.131 117.012 21.4558 116.629 21.8703 116.359C22.2847 116.09 22.7705 115.946 23.2674 115.946C23.9546 115.962 24.6071 116.245 25.0825 116.733C25.5579 117.222 25.8175 117.875 25.8046 118.55Z" fill="white"/>
<path d="M36.1056 118.55C36.0851 119.041 35.9184 119.514 35.6263 119.912C35.3341 120.31 34.9294 120.615 34.4624 120.788C33.9955 120.962 33.4869 120.996 33.0001 120.888C32.5132 120.78 32.0696 120.533 31.7243 120.178C31.3791 119.824 31.1475 119.377 31.0584 118.894C30.9692 118.412 31.0265 117.914 31.223 117.462C31.4196 117.011 31.7467 116.627 32.1638 116.357C32.5808 116.088 33.0693 115.944 33.5685 115.945C34.2556 115.962 34.9082 116.245 35.3836 116.733C35.859 117.221 36.1185 117.875 36.1056 118.55Z" fill="white"/>
<path d="M46.4066 118.55C46.3861 119.041 46.2194 119.514 45.9273 119.912C45.6351 120.31 45.2304 120.615 44.7634 120.788C44.2965 120.962 43.7879 120.996 43.3011 120.888C42.8142 120.78 42.3706 120.533 42.0253 120.178C41.6801 119.824 41.4485 119.377 41.3594 118.894C41.2702 118.412 41.3275 117.914 41.524 117.462C41.7206 117.011 42.0477 116.627 42.4648 116.357C42.8818 116.088 43.3703 115.944 43.8695 115.945C44.5566 115.962 45.2092 116.245 45.6846 116.733C46.16 117.221 46.4195 117.875 46.4066 118.55Z" fill="white"/>
<path d="M325.73 27.019H171.335V178.303H325.73V27.019Z" fill="#F0F0F0"/>
<path d="M325.73 27.019H171.335V44.7395H325.73V27.019Z" fill="#E0E0E0"/>
<path d="M184.487 35.7016C184.458 36.3459 184.238 36.9677 183.853 37.49C183.469 38.0123 182.936 38.412 182.323 38.6395C181.709 38.8669 181.041 38.9122 180.401 38.7696C179.762 38.627 179.179 38.3028 178.725 37.8373C178.271 37.3719 177.966 36.7856 177.848 36.1512C177.73 35.5169 177.804 34.8625 178.061 34.2693C178.319 33.6761 178.747 33.1702 179.294 32.8144C179.841 32.4586 180.483 32.2686 181.138 32.268C182.045 32.2887 182.906 32.6617 183.534 33.3052C184.161 33.9487 184.504 34.8104 184.487 35.7016Z" fill="white"/>
<path d="M197.068 33.381C197.513 33.8562 197.806 34.4497 197.911 35.0875C198.015 35.7253 197.926 36.3792 197.655 36.9677C197.384 37.5563 196.943 38.0534 196.387 38.3973C195.831 38.7411 195.184 38.9164 194.527 38.9013C193.87 38.8863 193.232 38.6815 192.693 38.3125C192.153 37.9436 191.736 37.4267 191.494 36.8264C191.251 36.2261 191.193 35.5688 191.328 34.9365C191.463 34.3042 191.784 33.7248 192.251 33.2705C192.905 32.6584 193.78 32.3262 194.683 32.3469C195.586 32.3677 196.443 32.7395 197.068 33.381Z" fill="white"/>
<path d="M211.608 35.7016C211.58 36.3459 211.36 36.9677 210.975 37.49C210.59 38.0123 210.058 38.412 209.444 38.6395C208.831 38.8669 208.162 38.9122 207.523 38.7696C206.883 38.627 206.3 38.3028 205.846 37.8373C205.392 37.3719 205.088 36.7856 204.97 36.1512C204.852 35.5169 204.926 34.8625 205.183 34.2693C205.44 33.6761 205.869 33.1702 206.416 32.8144C206.963 32.4586 207.604 32.2686 208.26 32.268C209.167 32.2887 210.028 32.6617 210.655 33.3052C211.283 33.9487 211.625 34.8104 211.608 35.7016Z" fill="white"/>
<path d="M292.378 330.795C292.378 330.905 236.626 331 167.875 331C99.1241 331 43.3478 330.905 43.3478 330.795C43.3478 330.684 99.092 330.59 167.875 330.59C236.658 330.59 292.378 330.692 292.378 330.795Z" fill="#263238"/>
<path d="M238.055 234.164C225.65 225.647 222.84 209.837 223.33 195.621C223.41 193.253 223.145 190.743 224.293 188.667C225.442 186.591 228.123 185.162 230.283 186.157C232.073 186.986 232.852 189.038 233.856 190.735C235.195 192.996 237.157 194.837 239.516 196.047C241.05 196.837 242.952 197.31 244.47 196.489C246.557 195.361 246.798 192.543 246.782 190.175C246.782 185.77 246.755 181.371 246.702 176.977C246.558 174.618 246.802 172.251 247.425 169.968C248.171 167.726 249.833 165.65 252.105 165.019C254.378 164.387 257.212 165.69 257.726 167.994C257.814 168.971 257.838 169.951 257.798 170.931C257.862 171.917 258.328 172.999 259.267 173.299C260.206 173.599 261.186 172.912 261.909 172.217C264.381 169.849 266.068 166.763 267.633 163.716C269.199 160.669 270.732 157.536 272.98 154.939C275.228 152.342 278.336 150.282 281.812 150.084C285.289 149.887 288.91 151.987 289.777 155.302C290.644 158.617 288.677 162.003 286.565 164.695C283.379 168.69 279.623 172.213 275.413 175.154C274.591 175.595 273.936 176.284 273.542 177.119C273.021 178.698 274.538 180.276 276.12 180.774C277.91 181.358 279.853 181.176 281.74 181.397C283.627 181.618 285.634 182.423 286.348 184.16C287.328 186.575 285.273 189.101 283.257 190.759C279.211 194.074 274.616 196.682 269.672 198.471C267.906 199.102 266.051 199.663 264.622 200.878C263.193 202.094 262.342 204.217 263.201 205.883C264.06 207.548 266.268 208.077 268.123 207.737C269.978 207.398 271.623 206.419 273.39 205.764C276.69 204.541 280.945 204.762 283.024 207.564C283.669 208.529 284.076 209.628 284.216 210.774C284.355 211.921 284.222 213.083 283.827 214.171C283.024 216.334 281.787 218.318 280.19 220.004C274.932 226.181 268.099 230.874 260.391 233.604C252.74 236.209 245.65 236.919 238.047 234.18" fill="#DDAF53"/>
<path d="M286.244 152.034C286.244 152.034 286.172 152.113 286.011 152.255L285.297 152.879C284.67 153.431 283.747 154.236 282.583 155.302C279.282 158.315 276.217 161.568 273.414 165.034C271.623 167.221 269.769 169.699 267.794 172.391C265.819 175.083 263.779 177.987 261.756 181.074C259.599 184.328 257.624 187.696 255.839 191.161C254.907 192.969 254.089 194.855 253.245 196.781L250.757 202.662C247.476 210.069 244.618 217.651 242.198 225.371C240.248 231.688 238.904 238.17 238.183 244.734C237.716 249.163 237.641 253.623 237.959 258.065C238.087 259.644 238.207 260.852 238.32 261.673C238.368 262.067 238.4 262.383 238.432 262.612V262.936C238.398 262.833 238.374 262.727 238.36 262.62C238.32 262.391 238.272 262.083 238.207 261.688C238.063 260.899 237.91 259.652 237.766 258.073C237.379 253.623 237.405 249.147 237.846 244.702C238.522 238.111 239.837 231.598 241.772 225.253C244.173 217.511 247.022 209.91 250.307 202.488L252.86 196.631C253.703 194.713 254.53 192.811 255.469 190.996C257.267 187.52 259.258 184.144 261.435 180.884C263.49 177.727 265.562 174.869 267.513 172.202C269.464 169.534 271.35 167.039 273.133 164.861C275.965 161.404 279.071 158.173 282.422 155.199C283.611 154.149 284.558 153.36 285.2 152.831L285.947 152.239C286.038 152.161 286.138 152.092 286.244 152.034Z" fill="#263238"/>
<path d="M255.574 190.98C255.461 190.655 255.383 190.319 255.341 189.977C255.213 189.322 255.068 188.399 254.899 187.199C254.554 184.831 254.201 181.587 253.824 177.995C253.446 174.404 253.021 171.152 252.667 168.807C252.483 167.639 252.322 166.7 252.21 166.045C252.122 165.709 252.076 165.365 252.073 165.019C252.212 165.335 252.311 165.666 252.37 166.005C252.547 166.653 252.748 167.584 252.973 168.76C253.43 171.128 253.88 174.349 254.257 177.948C254.635 181.547 254.956 184.705 255.205 187.159C255.325 188.265 255.429 189.204 255.51 189.954C255.572 190.292 255.594 190.636 255.574 190.98Z" fill="#263238"/>
<path d="M286.469 185.312C286.078 185.396 285.68 185.444 285.281 185.455C284.478 185.526 283.338 185.62 281.925 185.778C279.098 186.078 275.212 186.631 270.949 187.42C266.686 188.209 262.856 189.101 260.102 189.788C258.729 190.135 257.621 190.451 256.891 190.664C256.501 190.8 256.097 190.896 255.686 190.948C256.057 190.765 256.444 190.614 256.842 190.498C257.597 190.238 258.689 189.875 260.054 189.488C262.792 188.699 266.622 187.759 270.901 186.954C274.526 186.273 278.184 185.772 281.86 185.455C283.281 185.336 284.43 185.289 285.232 185.273C285.645 185.245 286.059 185.259 286.469 185.312Z" fill="#263238"/>
<path d="M242.166 224.7C242.08 224.586 242.01 224.461 241.957 224.329L241.427 223.232C240.969 222.277 240.351 220.864 239.612 219.135C238.119 215.662 236.216 210.8 234.193 205.401C232.17 200.002 230.307 195.14 228.894 191.627C228.203 189.922 227.633 188.525 227.208 187.483L226.758 186.354C226.696 186.224 226.653 186.086 226.63 185.944C226.715 186.058 226.786 186.183 226.839 186.315L227.368 187.412C227.818 188.367 228.444 189.78 229.183 191.509C230.676 194.982 232.579 199.844 234.602 205.243C236.626 210.642 238.488 215.505 239.901 219.017C240.592 220.722 241.162 222.119 241.579 223.161C241.764 223.611 241.917 223.95 242.037 224.29C242.099 224.42 242.143 224.558 242.166 224.7Z" fill="#263238"/>
<path d="M283.177 211.7C283.048 211.773 282.911 211.828 282.767 211.866L281.579 212.26L277.187 213.658C273.478 214.842 268.356 216.531 262.735 218.394C257.115 220.256 251.969 221.914 248.235 223.019C246.373 223.579 244.855 224.006 243.803 224.29L242.591 224.598C242.45 224.642 242.305 224.671 242.158 224.685C242.286 224.612 242.424 224.556 242.567 224.519L243.755 224.124L248.147 222.727C251.856 221.543 256.979 219.854 262.599 217.991C268.219 216.128 273.358 214.471 277.091 213.365C278.962 212.805 280.471 212.379 281.531 212.095L282.743 211.787C282.884 211.743 283.03 211.714 283.177 211.7Z" fill="#263238"/>
<path d="M266.445 20.2308L262.31 21.6832L260.535 16.3709C257.276 6.57528 246.886 1.37355 237.34 4.68087C227.794 7.98819 222.712 18.731 225.971 28.5267L227.746 33.8389L223.595 35.2992C222.012 35.9028 220.727 37.0828 220.006 38.594C219.285 40.1052 219.185 41.8313 219.725 43.4136L231.23 77.9786C231.469 78.7618 231.866 79.4899 232.396 80.1196C232.927 80.7492 233.581 81.2676 234.319 81.6438C235.058 82.0201 235.866 82.2466 236.695 82.3098C237.524 82.3731 238.358 82.2718 239.147 82.0121L281.997 66.9437C283.6 66.3411 284.904 65.1507 285.633 63.6226C286.362 62.0946 286.46 60.348 285.907 58.7504L274.393 24.1854C274.148 23.4043 273.746 22.6797 273.21 22.0549C272.673 21.4301 272.015 20.9179 271.273 20.5488C270.531 20.1798 269.721 19.9614 268.892 19.9067C268.062 19.8521 267.23 19.9623 266.445 20.2308ZM233.783 25.7561C232.904 23.2091 233.062 20.4265 234.224 17.9913C235.385 15.5561 237.46 13.6573 240.014 12.6926C241.275 12.2685 242.61 12.0984 243.939 12.1925C245.268 12.2866 246.565 12.643 247.751 13.2405C248.937 13.8379 249.989 14.6641 250.843 15.6699C251.697 16.6756 252.337 17.8402 252.723 19.0941L254.49 24.4064L235.55 31.0684L233.783 25.7561ZM257.87 56.4297L260.808 65.2545C260.862 65.4314 260.845 65.622 260.76 65.7866C260.675 65.9513 260.528 66.0773 260.351 66.1385L256.232 67.583C256.068 67.6277 255.893 67.6083 255.743 67.5288C255.594 67.4494 255.481 67.316 255.429 67.1568L252.466 58.3715C250.833 58.284 249.265 57.7079 247.974 56.7204C246.683 55.733 245.729 54.3812 245.241 52.8461C244.542 50.8167 244.67 48.6004 245.596 46.6612C246.522 44.722 248.176 43.2103 250.21 42.4427C251.215 42.1053 252.278 41.9701 253.337 42.0453C254.396 42.1205 255.428 42.4045 256.373 42.8803C257.318 43.3561 258.155 44.0141 258.836 44.8149C259.517 45.6158 260.026 46.5432 260.335 47.5418C260.851 49.1012 260.894 50.7748 260.458 52.3577C260.021 53.9405 259.125 55.3639 257.878 56.4534L257.87 56.4297Z" fill="#DDAF53"/>
<path d="M262.125 21.5884C262.125 21.6989 254.458 24.5326 244.919 27.9031C235.381 31.2736 227.601 33.981 227.561 33.902C227.521 33.8231 235.229 30.9657 244.775 27.5874C254.321 24.209 262.085 21.4858 262.125 21.5884Z" fill="#263238"/>
<path d="M271.23 23.0408C271.265 23.1093 271.295 23.1806 271.318 23.2539C271.382 23.4118 271.455 23.617 271.551 23.8696C271.76 24.4458 272.049 25.2431 272.41 26.2376L275.493 35.0624C276.778 38.8039 278.311 43.2399 280.013 48.1654C280.816 50.636 281.764 53.2092 282.647 55.9167C283.12 57.3118 283.324 58.7814 283.249 60.2501C283.181 61.0139 282.96 61.757 282.599 62.4366C282.213 63.1139 281.698 63.7115 281.081 64.1968C279.841 65.087 278.464 65.7771 277.003 66.2412L272.868 67.7014L265.04 70.4562L251.784 75.0975L242.832 78.1917L240.423 78.981L239.781 79.1863C239.712 79.2163 239.639 79.235 239.564 79.2415C239.564 79.2415 239.628 79.2415 239.765 79.1468L240.391 78.9021L242.8 78.0102L251.704 74.7897L264.935 70.0537L272.747 67.2752L276.882 65.807C278.302 65.3618 279.639 64.6927 280.84 63.8258C281.414 63.3755 281.894 62.8208 282.254 62.1919C282.594 61.5634 282.798 60.8729 282.856 60.1633C282.93 58.7481 282.734 57.3319 282.278 55.9877C281.41 53.304 280.495 50.707 279.668 48.2364C277.998 43.3031 276.457 38.8512 275.236 35.1098C274.016 31.3683 272.988 28.3609 272.282 26.2455C271.944 25.2115 271.688 24.4064 271.479 23.8223L271.286 23.1908C271.262 23.143 271.243 23.0927 271.23 23.0408Z" fill="#263238"/>
<path d="M248.621 12.1559C248.621 12.1559 248.195 11.9506 247.408 11.6349C246.287 11.2112 245.101 10.9764 243.9 10.9403C242.12 10.8803 240.348 11.2092 238.713 11.9033C236.725 12.7676 235.024 14.1656 233.807 15.9368C232.582 17.7029 231.925 19.7901 231.921 21.9278C231.937 23.6799 232.208 25.4208 232.724 27.098C233.141 28.5346 233.575 29.6791 233.864 30.4763C234.034 30.8813 234.174 31.2981 234.281 31.7235C234.053 31.3449 233.862 30.9458 233.711 30.5316C233.382 29.7422 232.908 28.6214 232.443 27.1769C231.871 25.4821 231.56 23.7129 231.519 21.9278C231.498 19.7093 232.171 17.538 233.446 15.7079C234.706 13.872 236.475 12.4307 238.544 11.556C240.231 10.8581 242.057 10.5502 243.884 10.6561C245.111 10.7176 246.316 10.9984 247.44 11.4849C247.741 11.6213 248.031 11.7796 248.308 11.9585C248.422 12.0078 248.527 12.0744 248.621 12.1559Z" fill="#263238"/>
<path d="M248.99 43.0425C249.118 42.9662 249.252 42.9002 249.391 42.8452C249.793 42.6669 250.209 42.5217 250.636 42.4111C251.313 42.2147 252.011 42.0981 252.715 42.0638C253.674 42.0131 254.633 42.1555 255.533 42.4821C257.589 43.1925 259.475 45.2527 260.407 48.0075C260.853 49.4858 260.853 51.0599 260.407 52.5383C259.912 54.1428 259.024 55.6036 257.822 56.7928L257.87 56.5797C258.938 59.4607 260.102 62.5865 261.306 65.8465L261.378 66.0438L261.178 66.1148L259.339 66.7147L255.325 68.0329L255.124 68.0961L255.06 67.8987C253.96 64.6309 252.755 61.584 251.848 58.5925L252.025 58.7266C250.455 58.5985 248.959 58.0193 247.721 57.0611C246.602 56.2135 245.684 55.136 245.032 53.9038C244.443 52.8111 244.15 51.5879 244.181 50.3518C244.218 49.0884 244.539 47.8488 245.12 46.7216C245.702 45.5944 246.53 44.6076 247.545 43.8319C247.962 43.4985 248.431 43.2321 248.934 43.0425C248.48 43.3071 248.041 43.5942 247.617 43.9029C246.502 44.8303 245.648 46.0234 245.136 47.3681C244.697 48.3821 244.491 49.4792 244.534 50.5805C244.577 51.6818 244.868 52.7601 245.385 53.738C246.026 54.9235 246.922 55.9577 248.01 56.7691C249.191 57.6798 250.618 58.2288 252.113 58.3478H252.25L252.29 58.4662C253.173 61.4025 254.385 64.473 255.501 67.7566L255.236 67.6304L259.251 66.3122L261.081 65.7044L260.953 65.9727C259.757 62.7128 258.6 59.5791 257.541 56.698V56.5797L257.637 56.4849C258.804 55.345 259.674 53.9452 260.174 52.4041C260.6 50.9899 260.6 49.4848 260.174 48.0706C259.299 45.4184 257.492 43.4056 255.533 42.6952C254.666 42.3665 253.74 42.2135 252.812 42.2453C252.118 42.2609 251.429 42.3536 250.756 42.5216C249.56 42.8136 248.998 43.082 248.99 43.0425Z" fill="#263238"/>
<path d="M224.173 270.955L143.973 270.592C139.342 270.567 134.91 268.736 131.651 265.501C128.391 262.265 126.572 257.891 126.591 253.337L127.442 55.6798C127.451 53.4239 127.913 51.192 128.8 49.1116C129.688 47.0312 130.983 45.1431 132.613 43.5553C134.243 41.9675 136.176 40.7111 138.3 39.8579C140.424 39.0046 142.698 38.5714 144.993 38.5828L225.185 38.9459C229.816 38.9689 234.249 40.7981 237.51 44.0319C240.771 47.2656 242.593 51.6395 242.575 56.1929L241.724 253.843C241.715 256.099 241.253 258.332 240.366 260.413C239.479 262.494 238.184 264.383 236.554 265.973C234.924 267.562 232.992 268.82 230.868 269.674C228.743 270.529 226.469 270.965 224.173 270.955Z" fill="#455A64"/>
<path d="M225.065 45.7421H209.521C209.014 45.7513 208.513 45.8587 208.048 46.0581C207.583 46.2575 207.163 46.545 206.811 46.9042C206.459 47.2633 206.183 47.6871 205.997 48.1514C205.812 48.6156 205.722 49.1112 205.731 49.6098V52.3804C205.741 52.8786 205.65 53.3738 205.465 53.8376C205.28 54.3014 205.003 54.7247 204.651 55.0833C204.299 55.4418 203.878 55.7285 203.413 55.9271C202.949 56.1256 202.448 56.232 201.942 56.2403L171.641 56.1061C170.616 56.0792 169.643 55.6535 168.937 54.9224C168.231 54.1913 167.849 53.2145 167.875 52.2068V49.4362C167.901 48.4297 167.52 47.4542 166.816 46.7233C166.112 45.9924 165.141 45.5658 164.118 45.5369H158.65L145.041 45.4737C141.804 45.4548 138.692 46.6976 136.385 48.93C134.078 51.1625 132.765 54.2026 132.733 57.3848L131.93 250.314C131.923 251.893 132.232 253.458 132.839 254.919C133.447 256.38 134.342 257.71 135.472 258.831C136.602 259.952 137.946 260.844 139.427 261.455C140.907 262.066 142.496 262.384 144.102 262.391L224.133 262.754C225.74 262.761 227.333 262.457 228.82 261.86C230.307 261.262 231.661 260.382 232.802 259.27C233.943 258.158 234.851 256.836 235.473 255.379C236.094 253.922 236.418 252.36 236.425 250.78L237.228 57.8505C237.248 54.6593 235.977 51.5913 233.696 49.3207C231.415 47.0501 228.311 45.763 225.065 45.7421Z" fill="white"/>
<path d="M214.298 237.014L154.788 236.761C154.17 236.761 153.672 236.098 153.68 235.293L153.744 219.988C153.744 219.199 154.25 218.52 154.868 218.52L214.378 218.788C214.721 218.846 215.027 219.032 215.234 219.307C215.44 219.582 215.531 219.925 215.486 220.264L215.43 235.554C215.43 236.367 214.916 237.022 214.298 237.014Z" fill="#DDAF53"/>
<path d="M169.483 230.786C169.06 230.786 168.654 230.718 168.264 230.583C167.879 230.442 167.581 230.263 167.369 230.046L167.605 229.583C167.806 229.778 168.074 229.943 168.41 230.079C168.752 230.209 169.109 230.274 169.483 230.274C169.841 230.274 170.131 230.231 170.353 230.144C170.581 230.052 170.746 229.93 170.849 229.778C170.958 229.626 171.012 229.458 171.012 229.274C171.012 229.052 170.947 228.873 170.817 228.737C170.692 228.602 170.527 228.496 170.321 228.42C170.115 228.339 169.887 228.268 169.638 228.209C169.388 228.149 169.139 228.087 168.89 228.022C168.64 227.951 168.41 227.859 168.199 227.745C167.993 227.631 167.825 227.482 167.694 227.298C167.57 227.108 167.507 226.861 167.507 226.558C167.507 226.276 167.581 226.019 167.727 225.785C167.879 225.547 168.109 225.357 168.418 225.216C168.727 225.07 169.123 224.997 169.605 224.997C169.925 224.997 170.242 225.043 170.557 225.135C170.871 225.222 171.142 225.344 171.37 225.501L171.166 225.981C170.923 225.818 170.662 225.699 170.386 225.623C170.115 225.547 169.852 225.509 169.597 225.509C169.256 225.509 168.974 225.555 168.752 225.647C168.529 225.739 168.364 225.864 168.255 226.021C168.152 226.173 168.101 226.347 168.101 226.542C168.101 226.764 168.163 226.943 168.288 227.078C168.418 227.214 168.586 227.32 168.792 227.395C169.004 227.471 169.234 227.539 169.483 227.599C169.733 227.658 169.979 227.723 170.223 227.794C170.473 227.864 170.7 227.956 170.906 228.07C171.118 228.179 171.286 228.325 171.41 228.509C171.541 228.694 171.606 228.935 171.606 229.233C171.606 229.51 171.53 229.767 171.378 230.006C171.226 230.239 170.993 230.428 170.679 230.575C170.37 230.716 169.971 230.786 169.483 230.786ZM172.917 230.737V225.045H173.518V230.737H172.917ZM175.37 230.737V225.045H175.866L179.794 229.989H179.534V225.045H180.127V230.737H179.631L175.712 225.794H175.972V230.737H175.37ZM184.481 230.786C184.048 230.786 183.646 230.716 183.278 230.575C182.915 230.428 182.597 230.225 182.326 229.965C182.061 229.705 181.852 229.398 181.7 229.046C181.554 228.694 181.481 228.309 181.481 227.891C181.481 227.474 181.554 227.089 181.7 226.737C181.852 226.384 182.064 226.078 182.335 225.818C182.606 225.558 182.923 225.357 183.286 225.216C183.655 225.07 184.056 224.997 184.489 224.997C184.923 224.997 185.319 225.064 185.677 225.2C186.04 225.336 186.349 225.542 186.603 225.818L186.229 226.2C185.991 225.962 185.728 225.791 185.441 225.688C185.153 225.585 184.844 225.533 184.514 225.533C184.161 225.533 183.836 225.593 183.538 225.712C183.245 225.826 182.988 225.991 182.766 226.208C182.549 226.42 182.378 226.669 182.253 226.956C182.134 227.238 182.074 227.55 182.074 227.891C182.074 228.228 182.134 228.539 182.253 228.827C182.378 229.114 182.549 229.366 182.766 229.583C182.988 229.794 183.245 229.96 183.538 230.079C183.836 230.193 184.159 230.25 184.506 230.25C184.831 230.25 185.137 230.201 185.424 230.103C185.717 230.006 185.986 229.84 186.229 229.607L186.571 230.062C186.3 230.301 185.983 230.483 185.62 230.607C185.256 230.727 184.877 230.786 184.481 230.786ZM185.994 229.989V227.891H186.571V230.062L185.994 229.989ZM170.207 240.786C169.481 240.786 168.909 240.577 168.491 240.16C168.074 239.743 167.865 239.125 167.865 238.306V235.045H168.467V238.282C168.467 238.954 168.619 239.45 168.922 239.77C169.226 240.09 169.654 240.25 170.207 240.25C170.765 240.25 171.196 240.09 171.5 239.77C171.803 239.45 171.955 238.954 171.955 238.282V235.045H172.541V238.306C172.541 239.125 172.332 239.743 171.915 240.16C171.503 240.577 170.933 240.786 170.207 240.786ZM174.354 240.737V235.045H176.484C176.967 235.045 177.381 235.124 177.728 235.281C178.075 235.433 178.341 235.655 178.525 235.948C178.715 236.235 178.81 236.585 178.81 236.997C178.81 237.398 178.715 237.745 178.525 238.038C178.341 238.325 178.075 238.547 177.728 238.705C177.381 238.862 176.967 238.94 176.484 238.94H174.687L174.956 238.656V240.737H174.354ZM174.956 238.705L174.687 238.412H176.468C177.037 238.412 177.468 238.29 177.761 238.046C178.059 237.797 178.208 237.447 178.208 236.997C178.208 236.542 178.059 236.189 177.761 235.94C177.468 235.691 177.037 235.566 176.468 235.566H174.687L174.956 235.281V238.705Z" fill="#E8E8E3"/>
<path d="M166.658 102.456L146.008 102.364L145.991 106.09L166.641 106.182L166.658 102.456Z" fill="#DDAF53"/>
<path opacity="0.1" d="M166.658 102.456L146.008 102.364L145.991 106.09L166.641 106.182L166.658 102.456Z" fill="black"/>
<path d="M227.192 125.331C227.354 125.315 227.514 125.278 227.666 125.22C227.888 125.135 228.081 124.99 228.223 124.801C228.365 124.613 228.45 124.389 228.469 124.155C228.469 122.9 228.469 121.068 228.469 118.716C228.469 117.54 228.469 116.222 228.469 114.769C228.469 114.414 228.469 114.043 228.469 113.672C228.521 113.312 228.441 112.946 228.244 112.638C228.133 112.491 227.99 112.371 227.824 112.287C227.658 112.204 227.475 112.159 227.288 112.157H226.036H214.434L147.281 111.912C147.109 111.909 146.939 111.947 146.785 112.023C146.632 112.098 146.499 112.209 146.398 112.346C146.204 112.655 146.13 113.022 146.189 113.38C146.189 114.17 146.189 114.959 146.189 115.748C146.189 117.327 146.189 118.906 146.189 120.484C146.189 121.274 146.189 122.063 146.189 122.852C146.156 123.22 146.156 123.59 146.189 123.957C146.231 124.115 146.31 124.261 146.418 124.384C146.527 124.507 146.663 124.604 146.815 124.668C146.974 124.73 147.143 124.759 147.313 124.755H151.4L169.232 124.849L199.42 125.031L219.773 125.189L225.305 125.252H226.743C227.072 125.252 227.232 125.252 227.232 125.252H226.743H225.305H219.773H199.42L169.232 125.157L151.4 125.086H147.313C147.088 125.095 146.864 125.057 146.655 124.976C146.443 124.887 146.255 124.752 146.105 124.581C145.955 124.41 145.846 124.207 145.788 123.989C145.741 123.782 145.725 123.569 145.74 123.357V122.773C145.74 121.984 145.74 121.195 145.74 120.405C145.74 118.827 145.74 117.248 145.74 115.669C145.74 114.88 145.74 114.091 145.74 113.301C145.724 113.091 145.724 112.88 145.74 112.67C145.77 112.438 145.861 112.217 146.005 112.03C146.143 111.84 146.326 111.685 146.539 111.579C146.751 111.474 146.987 111.42 147.225 111.423L214.378 111.786L225.98 111.865H227.232C227.453 111.865 227.67 111.917 227.866 112.018C228.062 112.118 228.23 112.263 228.356 112.441C228.583 112.784 228.674 113.197 228.613 113.601C228.613 113.972 228.613 114.343 228.613 114.698C228.613 116.135 228.613 117.453 228.613 118.645C228.613 121.013 228.557 122.829 228.541 124.092C228.521 124.334 228.432 124.567 228.282 124.761C228.133 124.955 227.93 125.104 227.698 125.189C227.546 125.281 227.371 125.33 227.192 125.331Z" fill="#E0E0E0"/>
<path d="M189.978 115.875H152.211V119.356H189.978V115.875Z" fill="#DDAF53"/>
<path opacity="0.2" d="M189.978 115.875H152.211V119.356H189.978V115.875Z" fill="white"/>
<path d="M166.517 136.444L145.867 136.352L145.85 140.077L166.5 140.169L166.517 136.444Z" fill="#DDAF53"/>
<path opacity="0.1" d="M166.517 136.444L145.867 136.352L145.85 140.077L166.5 140.169L166.517 136.444Z" fill="black"/>
<path d="M226.67 159.32C226.832 159.3 226.993 159.271 227.152 159.233C227.376 159.163 227.583 159.046 227.757 158.891C227.932 158.735 228.07 158.545 228.164 158.333C228.29 158.014 228.34 157.671 228.308 157.33C228.308 156.952 228.308 156.541 228.308 156.083C228.308 155.168 228.308 154.126 228.308 152.926V147.914C228.347 147.551 228.265 147.185 228.075 146.872C227.877 146.55 227.566 146.311 227.2 146.201C226.8 146.131 226.393 146.109 225.988 146.138H214.434L147.514 145.893C147.154 145.894 146.807 146.023 146.536 146.257C146.266 146.491 146.091 146.813 146.045 147.164C146.045 147.914 146.045 148.742 146.045 149.532C146.045 151.11 146.045 152.689 146.045 154.268C146.045 155.057 146.045 155.846 146.045 156.636C146.015 157.005 146.031 157.376 146.093 157.741C146.193 158.061 146.399 158.339 146.679 158.53C146.976 158.715 147.324 158.804 147.675 158.783H148.791H151.111L168.879 158.87L198.963 159.051L219.244 159.209L224.759 159.272H226.197H226.678H226.197H224.759H219.244H198.963L168.863 159.241L151.095 159.177H147.602C147.168 159.203 146.737 159.089 146.374 158.854C146.009 158.605 145.742 158.24 145.619 157.82C145.547 157.419 145.526 157.01 145.555 156.604C145.555 155.815 145.555 155.026 145.555 154.236C145.555 152.658 145.555 151.079 145.555 149.5C145.555 148.711 145.555 147.922 145.555 147.132C145.614 146.681 145.837 146.266 146.185 145.965C146.532 145.664 146.979 145.498 147.442 145.498L214.362 145.861L225.916 145.948C226.346 145.922 226.778 145.951 227.2 146.035C227.617 146.169 227.969 146.45 228.188 146.824C228.395 147.172 228.485 147.576 228.445 147.977C228.445 148.348 228.445 148.711 228.445 149.074C228.445 150.503 228.445 151.813 228.445 153.021C228.445 154.228 228.445 155.247 228.445 156.178C228.445 156.628 228.445 157.046 228.445 157.433C228.474 157.786 228.416 158.141 228.276 158.467C228.172 158.685 228.021 158.878 227.834 159.033C227.647 159.189 227.428 159.302 227.192 159.367C227.017 159.381 226.84 159.365 226.67 159.32Z" fill="#E0E0E0"/>
<path d="M166.362 171.908L145.712 171.816L145.694 175.541L166.344 175.633L166.362 171.908Z" fill="#DDAF53"/>
<path opacity="0.1" d="M166.362 171.908L145.712 171.816L145.694 175.541L166.344 175.633L166.362 171.908Z" fill="black"/>
<path d="M226.51 194.769C226.672 194.75 226.833 194.721 226.991 194.682C227.215 194.612 227.42 194.496 227.595 194.343C227.769 194.189 227.908 194 228.003 193.79C228.129 193.471 228.178 193.128 228.148 192.787C228.148 192.401 228.148 191.998 228.148 191.532C228.148 190.625 228.148 189.575 228.148 188.375V183.363C228.186 183 228.104 182.635 227.915 182.321C227.712 182.005 227.402 181.77 227.04 181.658C226.64 181.585 226.233 181.561 225.827 181.587H214.274L147.353 181.342C146.993 181.343 146.646 181.472 146.376 181.706C146.106 181.94 145.931 182.262 145.884 182.613C145.884 183.402 145.884 184.192 145.884 184.981C145.884 186.56 145.884 188.138 145.884 189.717C145.884 190.506 145.884 191.296 145.884 192.085C145.854 192.451 145.87 192.82 145.932 193.182C146.028 193.504 146.236 193.783 146.518 193.971C146.813 194.161 147.163 194.249 147.514 194.224H151.007L168.774 194.319L198.858 194.5L219.139 194.658L224.655 194.721H226.092C226.413 194.721 226.574 194.721 226.574 194.721C226.574 194.721 226.413 194.721 226.092 194.721H224.655H219.139H198.858L168.774 194.634L151.007 194.563H147.514C147.079 194.592 146.647 194.478 146.286 194.24C145.92 193.991 145.654 193.626 145.531 193.206C145.459 192.805 145.437 192.396 145.467 191.99C145.467 191.201 145.467 190.412 145.467 189.622C145.467 188.044 145.467 186.465 145.467 184.886C145.467 184.097 145.467 183.308 145.467 182.479C145.523 182.028 145.746 181.613 146.092 181.312C146.438 181.011 146.883 180.845 147.345 180.845L214.266 181.208L225.819 181.295C226.249 181.269 226.681 181.298 227.104 181.382C227.521 181.516 227.873 181.797 228.091 182.171C228.299 182.519 228.389 182.922 228.348 183.323C228.348 183.694 228.348 184.065 228.348 184.42C228.348 185.849 228.348 187.159 228.348 188.367C228.348 189.575 228.348 190.593 228.348 191.524C228.348 191.974 228.348 192.393 228.348 192.78C228.379 193.133 228.321 193.488 228.18 193.814C228.076 194.031 227.925 194.224 227.738 194.38C227.551 194.535 227.332 194.649 227.096 194.713C226.908 194.777 226.707 194.796 226.51 194.769Z" fill="#E0E0E0"/>
<path d="M189.172 150.848L151.405 150.679L151.389 154.16L189.156 154.328L189.172 150.848Z" fill="#DDAF53"/>
<path opacity="0.2" d="M189.172 150.848L151.405 150.679L151.389 154.16L189.156 154.328L189.172 150.848Z" fill="white"/>
<path d="M154.82 188.328C154.797 188.645 154.679 188.949 154.481 189.201C154.283 189.453 154.015 189.643 153.709 189.746C153.402 189.85 153.072 189.863 152.758 189.783C152.445 189.704 152.162 189.536 151.944 189.3C151.727 189.064 151.585 188.77 151.536 188.456C151.487 188.141 151.533 187.819 151.668 187.53C151.803 187.24 152.022 186.996 152.297 186.828C152.572 186.66 152.891 186.575 153.214 186.583C153.662 186.608 154.081 186.805 154.382 187.131C154.682 187.458 154.84 187.888 154.82 188.328Z" fill="#DDAF53"/>
<path d="M159.935 188.351C159.95 188.574 159.919 188.797 159.844 189.007C159.768 189.218 159.649 189.41 159.494 189.574C159.339 189.737 159.152 189.867 158.944 189.956C158.736 190.045 158.512 190.091 158.285 190.091C158.058 190.091 157.833 190.045 157.625 189.956C157.417 189.867 157.23 189.737 157.075 189.574C156.92 189.41 156.801 189.218 156.726 189.007C156.65 188.797 156.619 188.574 156.635 188.351C156.619 188.129 156.65 187.905 156.726 187.695C156.801 187.485 156.92 187.292 157.075 187.129C157.23 186.966 157.417 186.836 157.625 186.747C157.833 186.658 158.058 186.612 158.285 186.612C158.512 186.612 158.736 186.658 158.944 186.747C159.152 186.836 159.339 186.966 159.494 187.129C159.649 187.292 159.768 187.485 159.844 187.695C159.919 187.905 159.95 188.129 159.935 188.351Z" fill="#DDAF53"/>
<path d="M165.057 188.375C165.033 188.693 164.915 188.996 164.718 189.248C164.52 189.501 164.252 189.69 163.945 189.794C163.639 189.897 163.309 189.91 162.995 189.831C162.681 189.751 162.398 189.583 162.181 189.347C161.964 189.111 161.822 188.818 161.773 188.503C161.724 188.188 161.769 187.866 161.905 187.577C162.04 187.288 162.259 187.044 162.534 186.876C162.808 186.707 163.128 186.622 163.451 186.631C163.898 186.657 164.316 186.855 164.616 187.181C164.916 187.507 165.075 187.936 165.057 188.375Z" fill="#DDAF53"/>
<path d="M170.171 188.399C170.148 188.716 170.03 189.02 169.832 189.272C169.634 189.524 169.366 189.714 169.06 189.817C168.753 189.921 168.423 189.934 168.109 189.854C167.796 189.775 167.513 189.607 167.296 189.371C167.078 189.135 166.936 188.841 166.887 188.527C166.838 188.212 166.884 187.89 167.019 187.601C167.154 187.311 167.373 187.067 167.648 186.899C167.923 186.731 168.242 186.646 168.566 186.654C169.012 186.681 169.43 186.878 169.731 187.204C170.031 187.53 170.189 187.959 170.171 188.399Z" fill="#DDAF53"/>
<path d="M175.286 188.415C175.264 188.733 175.147 189.037 174.95 189.29C174.753 189.544 174.485 189.735 174.179 189.839C173.873 189.944 173.542 189.958 173.228 189.879C172.914 189.801 172.63 189.633 172.412 189.397C172.194 189.161 172.051 188.868 172.001 188.553C171.952 188.238 171.997 187.915 172.132 187.626C172.267 187.336 172.486 187.092 172.761 186.923C173.036 186.755 173.356 186.669 173.68 186.678C174.125 186.704 174.542 186.901 174.842 187.225C175.142 187.55 175.301 187.976 175.286 188.415Z" fill="#DDAF53"/>
<path d="M180.408 188.438C180.386 188.755 180.271 189.058 180.076 189.31C179.881 189.563 179.615 189.754 179.311 189.86C179.007 189.966 178.678 189.982 178.365 189.907C178.052 189.832 177.768 189.668 177.548 189.436C177.328 189.204 177.182 188.914 177.128 188.602C177.073 188.289 177.113 187.968 177.242 187.677C177.371 187.387 177.584 187.139 177.854 186.966C178.124 186.793 178.44 186.701 178.762 186.702C179.214 186.718 179.642 186.91 179.95 187.236C180.259 187.561 180.423 187.994 180.408 188.438Z" fill="#DDAF53"/>
<path d="M185.523 188.462C185.538 188.684 185.507 188.908 185.432 189.118C185.356 189.328 185.237 189.521 185.082 189.684C184.927 189.847 184.74 189.977 184.532 190.066C184.324 190.155 184.1 190.201 183.873 190.201C183.646 190.201 183.421 190.155 183.213 190.066C183.005 189.977 182.818 189.847 182.663 189.684C182.508 189.521 182.389 189.328 182.314 189.118C182.238 188.908 182.207 188.684 182.223 188.462C182.207 188.239 182.238 188.016 182.314 187.806C182.389 187.595 182.508 187.403 182.663 187.24C182.818 187.076 183.005 186.946 183.213 186.857C183.421 186.769 183.646 186.723 183.873 186.723C184.1 186.723 184.324 186.769 184.532 186.857C184.74 186.946 184.927 187.076 185.082 187.24C185.237 187.403 185.356 187.595 185.432 187.806C185.507 188.016 185.538 188.239 185.523 188.462Z" fill="#DDAF53"/>
<path d="M190.637 188.486C190.615 188.802 190.5 189.105 190.305 189.358C190.11 189.61 189.844 189.801 189.54 189.907C189.236 190.014 188.907 190.03 188.594 189.955C188.281 189.879 187.997 189.716 187.777 189.484C187.557 189.252 187.411 188.961 187.357 188.649C187.302 188.336 187.342 188.015 187.471 187.725C187.6 187.434 187.813 187.187 188.083 187.013C188.353 186.84 188.669 186.748 188.991 186.749C189.443 186.765 189.87 186.957 190.179 187.283C190.487 187.608 190.652 188.041 190.637 188.486Z" fill="#DDAF53"/>
<path d="M195.751 188.509C195.729 188.827 195.612 189.132 195.416 189.385C195.219 189.638 194.951 189.829 194.644 189.934C194.338 190.039 194.008 190.053 193.693 189.974C193.379 189.895 193.095 189.728 192.877 189.492C192.659 189.256 192.516 188.962 192.467 188.648C192.417 188.333 192.463 188.01 192.598 187.721C192.733 187.431 192.952 187.186 193.227 187.018C193.502 186.849 193.821 186.764 194.145 186.773C194.591 186.799 195.008 186.996 195.308 187.32C195.607 187.644 195.767 188.071 195.751 188.509Z" fill="#DDAF53"/>
<g opacity="0.2">
<path opacity="0.2" d="M154.82 188.328C154.797 188.645 154.679 188.949 154.481 189.201C154.283 189.453 154.015 189.643 153.709 189.746C153.402 189.85 153.072 189.863 152.758 189.783C152.445 189.704 152.162 189.536 151.944 189.3C151.727 189.064 151.585 188.77 151.536 188.456C151.487 188.141 151.533 187.819 151.668 187.53C151.803 187.24 152.022 186.996 152.297 186.828C152.572 186.66 152.891 186.575 153.214 186.583C153.662 186.608 154.081 186.805 154.382 187.131C154.682 187.458 154.84 187.888 154.82 188.328Z" fill="white"/>
<path opacity="0.2" d="M159.935 188.352C159.95 188.574 159.919 188.797 159.844 189.008C159.768 189.218 159.649 189.411 159.494 189.574C159.339 189.737 159.152 189.867 158.944 189.956C158.736 190.045 158.512 190.091 158.285 190.091C158.058 190.091 157.833 190.045 157.625 189.956C157.417 189.867 157.23 189.737 157.075 189.574C156.92 189.411 156.801 189.218 156.726 189.008C156.65 188.797 156.619 188.574 156.635 188.352C156.619 188.129 156.65 187.906 156.726 187.695C156.801 187.485 156.92 187.292 157.075 187.129C157.23 186.966 157.417 186.836 157.625 186.747C157.833 186.658 158.058 186.612 158.285 186.612C158.512 186.612 158.736 186.658 158.944 186.747C159.152 186.836 159.339 186.966 159.494 187.129C159.649 187.292 159.768 187.485 159.844 187.695C159.919 187.906 159.95 188.129 159.935 188.352Z" fill="white"/>
<path opacity="0.2" d="M165.057 188.375C165.033 188.693 164.915 188.996 164.718 189.248C164.52 189.501 164.252 189.69 163.945 189.794C163.639 189.897 163.309 189.91 162.995 189.831C162.681 189.751 162.398 189.583 162.181 189.347C161.964 189.111 161.822 188.818 161.773 188.503C161.724 188.188 161.769 187.866 161.905 187.577C162.04 187.288 162.259 187.044 162.534 186.876C162.808 186.707 163.128 186.622 163.451 186.631C163.898 186.657 164.316 186.855 164.616 187.181C164.916 187.507 165.075 187.936 165.057 188.375Z" fill="white"/>
<path opacity="0.2" d="M170.172 188.399C170.148 188.716 170.03 189.02 169.832 189.272C169.635 189.524 169.366 189.714 169.06 189.817C168.754 189.921 168.423 189.934 168.11 189.854C167.796 189.775 167.513 189.607 167.296 189.371C167.078 189.135 166.936 188.841 166.887 188.527C166.838 188.212 166.884 187.89 167.019 187.601C167.154 187.311 167.373 187.068 167.648 186.899C167.923 186.731 168.242 186.646 168.566 186.654C169.012 186.681 169.431 186.878 169.731 187.204C170.031 187.53 170.189 187.959 170.172 188.399Z" fill="white"/>
<path opacity="0.2" d="M175.286 188.415C175.264 188.733 175.147 189.037 174.95 189.29C174.753 189.544 174.485 189.735 174.179 189.839C173.873 189.944 173.542 189.958 173.228 189.879C172.914 189.801 172.63 189.633 172.412 189.397C172.194 189.161 172.051 188.868 172.001 188.553C171.952 188.238 171.997 187.915 172.132 187.626C172.267 187.336 172.486 187.092 172.761 186.923C173.036 186.755 173.356 186.669 173.68 186.678C174.125 186.704 174.542 186.901 174.842 187.225C175.142 187.55 175.301 187.976 175.286 188.415Z" fill="white"/>
<path opacity="0.2" d="M180.408 188.438C180.386 188.755 180.271 189.058 180.076 189.31C179.881 189.563 179.615 189.754 179.311 189.86C179.007 189.966 178.678 189.982 178.365 189.907C178.052 189.832 177.768 189.668 177.548 189.436C177.328 189.204 177.182 188.914 177.128 188.602C177.073 188.289 177.113 187.968 177.242 187.677C177.371 187.387 177.584 187.139 177.854 186.966C178.124 186.793 178.44 186.701 178.762 186.702C179.214 186.718 179.642 186.91 179.95 187.236C180.259 187.561 180.423 187.994 180.408 188.438Z" fill="white"/>
<path opacity="0.2" d="M185.523 188.462C185.538 188.684 185.507 188.908 185.432 189.118C185.356 189.328 185.237 189.521 185.082 189.684C184.927 189.847 184.74 189.977 184.532 190.066C184.324 190.155 184.1 190.201 183.873 190.201C183.646 190.201 183.421 190.155 183.213 190.066C183.005 189.977 182.818 189.847 182.663 189.684C182.508 189.521 182.389 189.328 182.314 189.118C182.238 188.908 182.207 188.684 182.223 188.462C182.207 188.239 182.238 188.016 182.314 187.806C182.389 187.595 182.508 187.403 182.663 187.24C182.818 187.077 183.005 186.946 183.213 186.858C183.421 186.769 183.646 186.723 183.873 186.723C184.1 186.723 184.324 186.769 184.532 186.858C184.74 186.946 184.927 187.077 185.082 187.24C185.237 187.403 185.356 187.595 185.432 187.806C185.507 188.016 185.538 188.239 185.523 188.462Z" fill="white"/>
<path opacity="0.2" d="M190.637 188.486C190.615 188.802 190.499 189.105 190.305 189.358C190.11 189.61 189.844 189.801 189.54 189.907C189.236 190.014 188.907 190.03 188.594 189.955C188.281 189.879 187.997 189.716 187.777 189.484C187.557 189.252 187.411 188.962 187.356 188.649C187.302 188.336 187.342 188.015 187.471 187.725C187.6 187.434 187.813 187.187 188.083 187.013C188.353 186.84 188.668 186.748 188.991 186.749C189.443 186.766 189.87 186.958 190.179 187.283C190.487 187.609 190.652 188.041 190.637 188.486Z" fill="white"/>
<path opacity="0.2" d="M195.751 188.509C195.729 188.827 195.612 189.132 195.416 189.385C195.219 189.638 194.951 189.829 194.644 189.934C194.338 190.039 194.008 190.053 193.693 189.974C193.379 189.895 193.095 189.728 192.877 189.492C192.659 189.256 192.516 188.962 192.467 188.648C192.417 188.333 192.463 188.01 192.598 187.72C192.733 187.431 192.952 187.186 193.227 187.018C193.502 186.849 193.821 186.764 194.145 186.773C194.591 186.799 195.008 186.996 195.308 187.32C195.607 187.644 195.767 188.071 195.751 188.509Z" fill="white"/>
</g>
<path d="M188.485 74.5607C189.043 74.3192 189.516 73.9219 189.846 73.418C190.176 72.9142 190.347 72.3261 190.34 71.727C190.361 71.3375 190.3 70.948 190.163 70.5821C190.026 70.2162 189.814 69.8816 189.541 69.5987C189.268 69.3158 188.939 69.0906 188.575 68.9366C188.211 68.7827 187.818 68.7033 187.421 68.7033C187.025 68.7033 186.632 68.7827 186.268 68.9366C185.903 69.0906 185.574 69.3158 185.301 69.5987C185.028 69.8816 184.817 70.2162 184.679 70.5821C184.542 70.948 184.482 71.3375 184.503 71.727C184.491 72.3321 184.661 72.9272 184.992 73.4371C185.324 73.9471 185.802 74.3491 186.365 74.5923C181.869 75.2553 182.07 80.0545 182.07 80.0545L192.7 80.1018C192.7 80.1018 192.949 75.2159 188.485 74.5607Z" fill="#DDAF53"/>
<path opacity="0.1" d="M188.485 74.5607C189.043 74.3192 189.516 73.9219 189.846 73.418C190.176 72.9142 190.347 72.3261 190.34 71.727C190.361 71.3375 190.3 70.948 190.163 70.5821C190.026 70.2162 189.814 69.8816 189.541 69.5987C189.268 69.3158 188.939 69.0906 188.575 68.9366C188.211 68.7827 187.818 68.7033 187.421 68.7033C187.025 68.7033 186.632 68.7827 186.268 68.9366C185.903 69.0906 185.574 69.3158 185.301 69.5987C185.028 69.8816 184.817 70.2162 184.679 70.5821C184.542 70.948 184.482 71.3375 184.503 71.727C184.491 72.3321 184.661 72.9272 184.992 73.4371C185.324 73.9471 185.802 74.3491 186.365 74.5923C181.869 75.2553 182.07 80.0545 182.07 80.0545L192.7 80.1018C192.7 80.1018 192.949 75.2159 188.485 74.5607Z" fill="black"/>
<path d="M205.759 83.1972L167.871 83.0282L167.851 87.48L205.738 87.649L205.759 83.1972Z" fill="#DDAF53"/>
<path opacity="0.2" d="M205.759 83.1972L167.871 83.0282L167.851 87.48L205.738 87.649L205.759 83.1972Z" fill="white"/>
<path d="M66.4706 106.268H66.0932L65.0013 106.347C64.4104 106.382 63.8228 106.459 63.243 106.576C62.8675 106.628 62.4949 106.699 62.127 106.789L60.8825 107.129C58.7644 107.768 56.7659 108.741 54.9653 110.01C52.5862 111.708 50.5997 113.881 49.1363 116.388C48.2762 117.833 47.5918 119.372 47.097 120.974C46.5771 122.715 46.2778 124.512 46.2058 126.325C46.158 127.278 46.174 128.232 46.254 129.183C46.254 129.664 46.3905 130.146 46.4547 130.635C46.5087 131.129 46.6027 131.617 46.7357 132.095C47.4577 135.263 48.9226 138.221 51.0136 140.733C53.1045 143.245 55.7637 145.242 58.779 146.564C60.9613 147.49 63.3004 148.006 65.6757 148.087C68.1291 148.22 70.585 147.874 72.9017 147.069L73.6082 146.809H73.7046L73.7849 146.856L83.9092 151.908L83.6122 152.16C82.5283 148.861 81.4845 145.664 80.4729 142.594V142.475L80.5612 142.388C83.0172 139.956 84.8404 136.978 85.8763 133.706C86.8145 130.714 87.0883 127.559 86.6792 124.455C86.3153 121.696 85.4129 119.031 84.0216 116.609C82.8223 114.527 81.2753 112.66 79.4452 111.083C77.9353 109.836 76.2642 108.79 74.4753 107.973C73.1218 107.399 71.7121 106.963 70.2682 106.671L68.6625 106.41L67.4983 106.324L66.7917 106.276H66.5509C66.6309 106.268 66.7117 106.268 66.7917 106.276H67.5063L68.6705 106.324L70.2763 106.553C71.7381 106.823 73.167 107.244 74.5396 107.808C76.3592 108.615 78.0604 109.658 79.5977 110.91C81.4614 112.479 83.0414 114.347 84.2705 116.435C85.7013 118.884 86.6314 121.584 87.0084 124.384C87.4514 127.536 87.1967 130.746 86.2617 133.793C85.2191 137.133 83.3676 140.175 80.8663 142.657L80.9145 142.452C81.9261 145.522 82.9779 148.719 84.0698 152.01L84.2223 152.492L83.7647 152.263L73.6403 147.219H73.817L73.0944 147.48C70.733 148.297 68.2318 148.65 65.7319 148.522C63.3054 148.431 60.9174 147.895 58.6906 146.943C54.4432 145.154 50.9093 142.046 48.6305 138.094C47.5819 136.269 46.8161 134.301 46.3583 132.253C46.233 131.762 46.1392 131.264 46.0773 130.762C46.0131 130.264 45.9087 129.775 45.8847 129.285C45.6674 126.477 45.9693 123.653 46.7759 120.95C47.2829 119.326 47.9865 117.768 48.8714 116.309C50.3697 113.779 52.3976 111.592 54.8207 109.891C56.651 108.619 58.6831 107.654 60.8343 107.034L62.0949 106.718C62.4659 106.634 62.841 106.568 63.2189 106.521C63.8047 106.414 64.3978 106.351 64.9933 106.332L66.0932 106.292C66.2183 106.276 66.3444 106.268 66.4706 106.268Z" fill="#DDAF53"/>
<path d="M71.0472 124.676H69.5619L66.3503 120.24V117.327C66.3503 117.327 64.0541 117.185 64.3271 120.997C64.6001 124.81 64.3271 123.839 64.3271 123.839C64.3271 123.839 59.4536 123.839 59.0521 124.273C58.6507 124.707 58.6266 129.333 58.5704 131.914C58.5396 132.536 58.7212 133.151 59.0864 133.66C59.4515 134.169 59.9792 134.543 60.5856 134.724C60.7556 134.77 60.9311 134.794 61.1075 134.795C62.3279 134.795 68.5342 133.824 68.5342 133.824H71.0954L71.0472 124.676Z" fill="#DDAF53"/>
<path d="M75.2944 123.894L74.3792 133.871H71.842V124.1L75.2944 123.894Z" fill="#DDAF53"/>
<path d="M105.555 327.014V320.265L93.2469 320.178L93.1425 330.384L93.9052 330.44C97.3014 330.653 111.183 330.968 113.463 330.274C116.001 329.5 105.555 327.014 105.555 327.014Z" fill="#DDAF53"/>
<path d="M113.753 329.642C113.753 329.753 109.144 329.848 103.468 329.848C97.7915 329.848 93.1829 329.753 93.1829 329.642C93.1829 329.532 97.7915 329.437 103.468 329.437C109.144 329.437 113.753 329.532 113.753 329.642Z" fill="#263238"/>
<path d="M105.772 328.395C105.667 328.34 105.772 327.985 106.021 327.606C106.27 327.227 106.607 327.069 106.687 327.148C106.767 327.227 106.599 327.527 106.358 327.851C106.117 328.174 105.876 328.451 105.772 328.395Z" fill="#263238"/>
<path d="M106.559 328.837C106.446 328.837 106.502 328.395 106.743 327.977C106.984 327.559 107.305 327.306 107.394 327.369C107.482 327.432 107.337 327.787 107.113 328.158C106.888 328.529 106.663 328.877 106.559 328.837Z" fill="#263238"/>
<path d="M96.8921 329.611C96.8439 329.611 96.6592 329.469 96.3943 329.169C96.0709 328.783 95.7106 328.429 95.3184 328.111C94.9328 327.808 94.4733 327.609 93.9856 327.535C93.6083 327.487 93.3674 327.535 93.3433 327.487C93.3192 327.44 93.5521 327.274 93.9936 327.243C94.5764 327.231 95.1449 327.421 95.5994 327.779C96.0253 328.121 96.3844 328.535 96.6592 329.003C96.8439 329.35 96.9402 329.579 96.8921 329.611Z" fill="#263238"/>
<path d="M105.812 327.124C105.868 327.219 105.659 327.456 105.306 327.582C104.953 327.709 104.64 327.661 104.624 327.582C104.608 327.503 104.857 327.338 105.162 327.227C105.467 327.117 105.748 327.03 105.812 327.124Z" fill="#263238"/>
<path d="M105.619 326.469C105.619 326.588 105.298 326.682 104.881 326.69C104.463 326.698 104.134 326.603 104.142 326.493C104.15 326.382 104.479 326.28 104.881 326.272C105.282 326.264 105.603 326.359 105.619 326.469Z" fill="#263238"/>
<path d="M135.864 327.014V320.265L123.556 320.178L123.451 330.282L124.214 330.337C127.61 330.55 141.5 330.969 143.772 330.274C146.309 329.5 135.864 327.014 135.864 327.014Z" fill="#DDAF53"/>
<path d="M144.061 329.658C144.061 329.769 139.461 329.863 133.776 329.863C128.092 329.863 123.5 329.769 123.5 329.658C123.5 329.548 128.1 329.453 133.776 329.453C139.453 329.453 144.061 329.548 144.061 329.658Z" fill="#263238"/>
<path d="M136.081 328.395C135.984 328.34 136.081 327.985 136.33 327.606C136.579 327.227 136.916 327.069 136.996 327.148C137.076 327.227 136.908 327.527 136.667 327.851C136.426 328.174 136.185 328.451 136.081 328.395Z" fill="#263238"/>
<path d="M136.867 328.837C136.763 328.837 136.811 328.395 137.06 327.977C137.309 327.559 137.622 327.306 137.711 327.369C137.799 327.432 137.646 327.787 137.421 328.158C137.197 328.529 136.98 328.877 136.867 328.837Z" fill="#263238"/>
<path d="M127.201 329.611C127.153 329.611 126.976 329.469 126.703 329.169C126.38 328.783 126.019 328.429 125.627 328.111C125.242 327.808 124.782 327.609 124.294 327.535C123.925 327.487 123.676 327.535 123.652 327.487C123.628 327.44 123.861 327.274 124.302 327.243C124.885 327.231 125.454 327.421 125.908 327.779C126.336 328.119 126.696 328.533 126.968 329.003C127.153 329.35 127.249 329.579 127.201 329.611Z" fill="#263238"/>
<path d="M136.121 327.124C136.177 327.219 135.968 327.456 135.615 327.582C135.262 327.709 134.949 327.661 134.933 327.582C134.917 327.503 135.166 327.338 135.471 327.227C135.776 327.117 136.057 327.03 136.121 327.124Z" fill="#263238"/>
<path d="M135.944 326.469C135.944 326.588 135.623 326.682 135.206 326.69C134.788 326.698 134.467 326.603 134.475 326.493C134.483 326.382 134.804 326.28 135.206 326.272C135.607 326.264 135.944 326.359 135.944 326.469Z" fill="#263238"/>
<path d="M181.211 126.602C180.89 126.278 180.095 126.436 180.095 126.436C180.175 125.981 180.175 125.517 180.095 125.062C179.95 124.62 178.939 124.707 178.939 124.707C178.892 124.335 178.892 123.959 178.939 123.586C178.947 123.504 178.929 123.421 178.887 123.349C178.845 123.277 178.782 123.219 178.706 123.184C178.227 122.992 177.713 122.9 177.196 122.915C176.578 122.481 179.083 119.032 180.015 117.927C180.946 116.822 180.777 115.961 179.95 115.961C179.38 115.961 176.458 119.277 175.559 120.389C174.659 121.502 172.275 124.597 172.194 122.126C172.114 119.655 171.103 117.793 170.468 117.477C169.834 117.161 169.16 117.903 169.505 118.59C169.808 119.37 169.997 120.189 170.067 121.021C170.154 121.684 170.124 122.357 169.979 123.01C169.712 124.225 169.35 125.418 168.895 126.578H168.83C168.83 126.578 151.311 143.099 150.043 144.275C148.911 145.332 126.141 143.02 121.573 142.546C120.02 142.323 118.453 142.217 116.884 142.23C114.901 142.317 114.547 142.593 112.572 142.617C107.584 142.672 102.608 143.102 97.6869 143.904C95.4586 144.276 93.3771 145.243 91.6696 146.699C89.9621 148.155 88.6942 150.044 88.0041 152.16C83.4036 166.289 72.9821 199.734 71.1435 218.52C69.7542 220.997 68.4999 223.545 67.386 226.153C66.0934 229.61 66.4065 229.728 66.8401 229.807C68.0123 230.02 69.3451 223.816 69.8429 225.316C70.3407 226.816 67.3138 232.712 68.5422 232.886C70.148 233.107 71.4246 226.571 71.5771 226.05C71.7296 225.529 72.5245 225.695 72.38 226.184C72.1471 226.879 69.891 234.243 71.4647 234.48C72.3318 234.606 72.4282 233.051 72.4282 233.051C72.4282 233.051 74.0339 226.003 74.7646 226.145C75.4952 226.287 74.7164 230.447 74.347 231.836C73.9777 233.225 74.4916 233.928 75.2463 233.588C75.7601 233.351 76.9885 229.128 77.3258 227.755C77.663 226.381 78.506 222.577 79.638 224.779C80.7701 226.981 82.4883 228.26 83.1948 228.292C83.354 228.274 83.5041 228.209 83.6257 228.107C83.7473 228.004 83.8349 227.868 83.8773 227.716C83.9196 227.564 83.9147 227.403 83.8632 227.254C83.8117 227.105 83.7159 226.974 83.5882 226.879C82.9805 226.295 82.459 225.631 82.0387 224.905C81.6641 224.34 81.3925 223.715 81.2358 223.058C80.9122 221.749 80.724 220.411 80.6738 219.064L80.5453 218.275C82.3438 209.521 87.5224 183.828 94.9972 167.418L98.0642 173.622L99.397 178.216L91.2237 198.052L126.085 197.602L120.882 177.916L127.201 157.394C134.033 157.544 151.576 157.796 154.499 156.494C158.176 154.915 177.196 131.298 177.196 131.298C178.436 130.351 179.624 129.339 180.753 128.267C180.753 128.267 181.909 127.312 181.211 126.602Z" fill="#FFBE9D"/>
<path d="M89.6901 183.394C90.7018 180 95.8964 163.219 95.8964 163.219C95.8964 163.219 98.4496 176.898 97.7752 178.548C97.1548 179.96 96.4219 181.322 95.5833 182.621C89.6901 191.438 90.4609 195.85 90.4609 195.85L126.069 194.784C126.149 189.891 123.202 178.508 122.592 176.693C121.982 174.877 124.013 168.934 124.013 168.934C124.013 168.934 128.028 164.916 127.883 162.848C127.807 160.99 127.573 159.142 127.185 157.323L148.863 158.112L148.18 143.667L117.044 140.604C115.96 143.612 106.157 142.136 106.157 142.136C95.5753 142.483 94.9169 144.393 90.5171 147.756C86.1173 151.118 78.8351 179.976 78.8351 179.976L89.6901 183.394Z" fill="#DDAF53"/>
<path d="M110.742 179.976C110.125 180.085 109.496 180.117 108.871 180.071C107.707 180.071 106.109 179.992 104.351 179.819C102.593 179.645 101.003 179.4 99.8708 179.179C99.2465 179.1 98.6345 178.946 98.0482 178.721C98.6759 178.722 99.3023 178.78 99.9189 178.895C101.059 179.037 102.641 179.234 104.391 179.408C106.141 179.582 107.731 179.7 108.879 179.779C109.505 179.787 110.129 179.853 110.742 179.976Z" fill="#263238"/>
<path d="M113.183 177.001C112.565 177.298 111.913 177.518 111.24 177.656C108.036 178.483 104.732 178.869 101.42 178.8C100.735 178.822 100.05 178.759 99.381 178.611C100.057 178.527 100.739 178.493 101.42 178.508C102.681 178.469 104.415 178.382 106.326 178.161C108.237 177.94 109.939 177.624 111.143 177.372C111.812 177.196 112.494 177.072 113.183 177.001Z" fill="#263238"/>
<path d="M125.161 163.724C125.145 164.326 125.062 164.924 124.913 165.508C124.704 166.605 124.383 168.105 123.973 169.747C123.564 171.388 123.17 172.904 122.817 173.93C122.675 174.518 122.465 175.087 122.191 175.627C122.236 175.027 122.349 174.434 122.528 173.859C122.833 172.628 123.178 171.207 123.564 169.652C123.949 168.097 124.318 166.676 124.624 165.445C124.732 164.852 124.913 164.274 125.161 163.724Z" fill="#263238"/>
<path d="M90.0676 181.381C88.2101 181.099 86.377 180.68 84.5839 180.126C82.7516 179.705 80.9536 179.151 79.2046 178.469C81.0611 178.755 82.8939 179.175 84.6883 179.724C86.5209 180.144 88.3191 180.698 90.0676 181.381Z" fill="#263238"/>
<path d="M127.57 157.149C127.267 157.2 126.958 157.2 126.655 157.149C125.816 157.064 124.993 156.871 124.206 156.573C122.893 156.087 121.697 155.337 120.696 154.371C119.695 153.404 118.911 152.243 118.393 150.961C117.822 149.55 117.577 148.032 117.679 146.517C117.715 145.267 118.095 144.05 118.779 142.996C119.26 142.286 119.978 141.764 120.81 141.52C121.032 141.46 121.262 141.431 121.492 141.433C121.653 141.433 121.733 141.433 121.733 141.433C121.733 141.433 121.396 141.433 120.858 141.646C120.095 141.923 119.448 142.443 119.02 143.122C117.928 144.812 117.623 147.898 118.787 150.779C119.329 152.137 120.177 153.357 121.268 154.347C122.161 155.156 123.191 155.808 124.311 156.273C125.361 156.681 126.454 156.975 127.57 157.149Z" fill="#263238"/>
<path d="M146.285 157.828C146.085 155.407 146.02 152.978 146.093 150.55C146.03 148.125 146.105 145.697 146.318 143.28C146.519 145.698 146.583 148.125 146.51 150.55C146.578 152.978 146.503 155.408 146.285 157.828Z" fill="#263238"/>
<path d="M116.835 141.488C116.924 139.728 117.108 137.739 117.108 137.739C117.108 137.739 121.54 137.258 121.805 132.758C122.07 128.259 121.805 117.879 121.805 117.879L113.776 113.838L104.864 120.729L106.237 143.225L114.411 143.738C115.036 143.755 115.642 143.528 116.096 143.106C116.551 142.684 116.817 142.103 116.835 141.488Z" fill="#FFBE9D"/>
<path d="M117.631 129.198C117.631 129.198 117.631 129.285 117.558 129.388C117.499 129.462 117.421 129.521 117.333 129.56C117.245 129.598 117.149 129.615 117.053 129.609C116.539 129.609 116.041 129.025 115.864 128.346C115.78 128.017 115.78 127.673 115.864 127.344C115.881 127.2 115.933 127.063 116.018 126.944C116.102 126.825 116.215 126.729 116.346 126.665C116.454 126.621 116.575 126.621 116.683 126.665C116.763 126.704 116.828 126.768 116.868 126.846C116.924 126.98 116.868 127.067 116.868 127.059C116.868 127.051 116.868 126.98 116.788 126.901C116.746 126.845 116.684 126.806 116.614 126.791C116.545 126.777 116.472 126.788 116.41 126.823C116.312 126.881 116.23 126.963 116.172 127.061C116.115 127.159 116.083 127.27 116.081 127.383C116.013 127.677 116.013 127.981 116.081 128.275C116.242 128.891 116.675 129.388 117.061 129.435C117.136 129.445 117.213 129.44 117.286 129.42C117.359 129.399 117.427 129.364 117.486 129.317C117.582 129.254 117.615 129.191 117.631 129.198Z" fill="#EB996E"/>
<path d="M124.559 115.448C123.941 113.38 121.701 112.354 119.662 111.786C116.555 110.917 113.199 110.539 110.164 111.636C107.129 112.733 103.484 114.659 103.484 117.95C101.693 117.808 100.666 119.348 99.959 121.258C99.5073 122.422 99.2367 123.646 99.1562 124.889C98.9314 129.199 97.7029 135.15 94.8607 138.307C93.255 140.068 91.031 141.283 90.1157 143.478C89.3128 145.38 89.7303 147.637 88.9836 149.563C88.3172 151.26 86.848 152.468 85.7721 153.944C84.676 155.619 84.031 157.54 83.8975 159.527C83.7641 161.513 84.1467 163.501 85.0094 165.303C85.8782 167.058 87.1015 168.621 88.6047 169.897C90.1078 171.173 91.8594 172.134 93.7528 172.722C97.5031 173.844 101.502 173.883 105.274 172.833C108.105 172.168 110.746 170.88 112.998 169.068C115.302 167.218 116.885 164.641 117.478 161.774C118.048 158.554 117.133 155.278 116.45 152.073C114.315 141.946 114.925 141.417 117.622 132.016C117.687 131.851 117.719 131.677 117.767 131.511C117.815 131.346 117.839 131.267 117.871 131.14C117.948 130.769 117.988 130.391 117.992 130.012C117.598 130.156 117.17 130.186 116.759 130.099C116.348 130.013 115.971 129.812 115.671 129.522C115.372 129.213 115.162 128.829 115.066 128.412C114.97 127.995 114.991 127.561 115.126 127.154C115.315 126.71 115.597 126.309 115.954 125.979C116.311 125.648 116.734 125.395 117.197 125.236C118.088 124.873 119.044 124.684 119.919 124.281C121.773 123.413 123.058 121.613 123.933 119.726C124.653 118.419 124.875 116.902 124.559 115.448Z" fill="#263238"/>
<path d="M117.952 129.412C118.121 129.658 118.262 129.923 118.369 130.201C118.61 130.698 118.931 131.401 119.285 132.214L119.349 132.364H119.18L118.377 132.435C117.823 132.435 117.358 132.537 116.812 132.53C116.764 132.519 116.72 132.497 116.684 132.465C116.647 132.433 116.619 132.393 116.603 132.348C116.579 132.276 116.579 132.199 116.603 132.127C116.622 132.021 116.646 131.915 116.675 131.811L116.82 131.251C116.892 130.877 117.005 130.512 117.157 130.162C117.142 130.543 117.085 130.921 116.988 131.29L116.876 131.851C116.836 132.04 116.763 132.332 116.876 132.309C117.277 132.309 117.847 132.222 118.377 132.19L119.18 132.119L119.076 132.293C118.731 131.503 118.442 130.761 118.273 130.248C118.125 129.986 118.017 129.704 117.952 129.412Z" fill="#DDAF53"/>
<path d="M90.4608 195.85L126.069 194.784L141.564 254.253L138.714 322.467H119.886L122.191 255.705L108.421 214.305L110.541 325.112L91.5125 325.388L89.5134 221.235C89.425 218.338 88.4616 211.81 88.8229 208.937L90.4608 195.85Z" fill="#263238"/>
<path d="M113.158 215.149C112.576 215.185 111.99 215.151 111.416 215.047C110.34 214.92 108.871 214.699 107.257 214.384C105.643 214.068 104.198 213.705 103.154 213.413C102.596 213.292 102.057 213.101 101.549 212.844C101.549 212.726 104.166 213.342 107.378 213.981C110.589 214.62 113.174 215.031 113.158 215.149Z" fill="#455A64"/>
<path d="M138.522 318.726C138.522 318.836 134.258 318.931 128.999 318.931C123.74 318.931 119.469 318.836 119.469 318.726C119.469 318.615 123.732 318.521 128.999 318.521C134.266 318.521 138.522 318.607 138.522 318.726Z" fill="#455A64"/>
<path d="M110.372 322.231C110.372 322.349 106.229 322.436 101.123 322.436C96.0168 322.436 91.8819 322.349 91.8819 322.231C91.8819 322.112 96.0248 322.025 101.123 322.025C106.221 322.025 110.372 322.12 110.372 322.231Z" fill="#455A64"/>
<path d="M107.916 321.946C107.803 321.946 107.305 297.737 106.8 267.877C106.294 238.016 105.997 213.792 106.101 213.792C106.205 213.792 106.719 237.993 107.217 267.869C107.715 297.745 108.036 321.946 107.916 321.946Z" fill="#455A64"/>
<path d="M135.992 318.726C135.984 318.618 135.984 318.51 135.992 318.402V317.455C135.992 316.603 136.057 315.379 136.105 313.824C136.217 310.667 136.378 306.081 136.578 300.461C137.012 289.157 137.622 273.576 138.289 256.376C138.289 256.21 138.289 256.053 138.289 255.911V255.966C134.073 239.39 130.26 224.345 127.49 213.46L124.278 200.586C123.909 199.078 123.628 197.902 123.427 197.081C123.331 196.695 123.267 196.395 123.21 196.166C123.179 196.063 123.16 195.957 123.154 195.85C123.196 195.949 123.228 196.053 123.251 196.158C123.315 196.379 123.395 196.679 123.508 197.058C123.724 197.847 124.037 199.047 124.439 200.547C125.242 203.593 126.374 207.982 127.787 213.389C130.581 224.266 134.435 239.271 138.706 255.871V255.926C138.706 256.068 138.706 256.234 138.706 256.392C137.992 273.592 137.341 289.165 136.868 300.469C136.619 306.096 136.41 310.651 136.265 313.824C136.185 315.403 136.121 316.603 136.081 317.455C136.081 317.858 136.033 318.173 136.024 318.402C136.026 318.511 136.015 318.619 135.992 318.726Z" fill="#455A64"/>
<path d="M129.85 254.521C128.498 254.958 127.105 255.263 125.691 255.429C123.957 255.721 122.48 255.926 121.814 255.958V255.8C122.03 255.863 122.143 255.903 122.143 255.934C122.143 255.966 122.006 255.934 121.781 255.934H121.3L121.781 255.792C122.408 255.611 123.885 255.311 125.619 255.003C127.01 254.706 128.427 254.545 129.85 254.521Z" fill="#455A64"/>
<path d="M129.521 256.787C128.269 256.843 127.014 256.788 125.772 256.621C124.517 256.596 123.268 256.461 122.038 256.218C124.547 256.017 127.073 256.209 129.521 256.787Z" fill="#455A64"/>
<path opacity="0.2" d="M90.3082 197.105C90.7299 197.637 91.2611 198.076 91.867 198.393C92.473 198.71 93.1401 198.898 93.8249 198.944C95.259 199.111 96.7096 199.085 98.1363 198.865C107.329 197.863 117.068 196.939 126.069 194.784C114.419 195.424 102.111 195.211 90.4608 195.85L90.3403 196.829" fill="black"/>
<g opacity="0.2">
<path opacity="0.2" d="M102.311 213.247L108.879 238.3L108.421 214.305L102.311 213.247Z" fill="black"/>
</g>
</svg>
